<?xml version="1.0" encoding="utf-8"?>
<!-- Generator: Adobe Illustrator 17.0.0, SVG Export Plug-In . SVG Version: 6.00 Build 0)  -->
<!DOCTYPE svg PUBLIC "-//W3C//DTD SVG 1.1//EN" "http://www.w3.org/Graphics/SVG/1.1/DTD/svg11.dtd">
<svg version="1.1" id="Layer_1" xmlns="http://www.w3.org/2000/svg" xmlns:xlink="http://www.w3.org/1999/xlink" x="0px" y="0px"
	 width="312.153px" height="61.253px" viewBox="0 0 312.153 61.253" enable-background="new 0 0 312.153 61.253"
	 xml:space="preserve">
<g>
	<g>
		<g>
			<path fill="#B8886A" d="M91.818,22.214c0-0.818,0.214-1.382,0.622-1.682c0.427-0.312,0.895-0.428,1.419-0.361
				c0.506,0.06,0.953,0.303,1.323,0.661c0.37,0.371,0.515,0.846,0.407,1.382c-0.135,0.623-0.26,1.381-0.387,2.284
				c-0.108,0.915-0.195,1.82-0.235,2.655c-0.018,0.867,0,1.596,0.09,2.217c0.087,0.613,0.28,0.905,0.593,0.905
				c0.192,0,0.447-0.243,0.737-0.769c0.292-0.542,0.564-1.175,0.847-1.886c0.272-0.709,0.515-1.439,0.768-2.129
				c0.232-0.72,0.39-1.284,0.447-1.652c0.107-0.342,0.272-0.565,0.515-0.691c0.233-0.107,0.467-0.146,0.69-0.088
				c0.225,0.04,0.41,0.174,0.565,0.378c0.155,0.206,0.175,0.458,0.077,0.769c-0.067,0.206-0.174,0.574-0.33,1.156
				c-0.165,0.556-0.359,1.189-0.592,1.879c-0.235,0.65-0.525,1.361-0.848,2.1c-0.319,0.728-0.7,1.381-1.117,1.934
				c-0.427,0.564-0.905,1.011-1.41,1.314c-0.505,0.302-1.07,0.37-1.683,0.184c-0.925-0.253-1.575-0.749-1.975-1.498
				c-0.39-0.728-0.612-1.585-0.69-2.548c-0.067-0.962-0.067-2.04,0.041-3.18C91.76,24.413,91.818,23.304,91.818,22.214z"/>
			<path fill="#B8886A" d="M98.604,20.727c0.138-0.75,0.468-1.323,0.972-1.752c0.508-0.426,1.033-0.718,1.558-0.884
				c0.525-0.136,0.99-0.165,1.38-0.049c0.39,0.119,0.545,0.391,0.438,0.809c-0.108,0.465-0.223,1.108-0.36,1.924
				c-0.135,0.817-0.252,1.665-0.36,2.5c-0.108,0.866-0.185,1.663-0.253,2.43c-0.067,0.788-0.097,1.333-0.097,1.664
				c0.128-0.468,0.303-0.973,0.505-1.46c0.205-0.535,0.41-1.031,0.633-1.525c0.235-0.487,0.468-0.945,0.699-1.352
				c0.236-0.409,0.458-0.748,0.663-0.963c0.233-0.35,0.603-0.612,1.108-0.806c0.487-0.187,0.935-0.283,1.363-0.283
				c0.427,0,0.777,0.137,1.049,0.361c0.283,0.231,0.331,0.592,0.156,1.021c-0.078,0.214-0.135,0.603-0.193,1.176
				c-0.08,0.584-0.148,1.215-0.215,1.877c0.215-0.457,0.478-0.992,0.818-1.574c0.34-0.575,0.68-1.12,1.03-1.645
				c0.33-0.545,0.652-1.021,0.932-1.467c0.293-0.438,0.528-0.769,0.692-0.964c0.243-0.351,0.613-0.631,1.08-0.854
				c0.475-0.226,0.942-0.311,1.38-0.311c0.447,0,0.817,0.085,1.117,0.311c0.303,0.223,0.438,0.591,0.41,1.098
				c-0.03,0.262-0.097,0.651-0.168,1.234c-0.088,0.573-0.213,1.246-0.34,1.993c-0.146,0.76-0.263,1.537-0.38,2.344
				c-0.135,0.817-0.222,1.566-0.31,2.227c-0.087,0.671-0.135,1.226-0.155,1.663c-0.02,0.428,0.047,0.652,0.175,0.652
				c0.205,0,0.475-0.233,0.817-0.701c0.35-0.486,0.681-1.049,1.01-1.73c0.31-0.651,0.623-1.342,0.915-2.062
				c0.283-0.699,0.485-1.283,0.643-1.731c0.098-0.301,0.252-0.515,0.475-0.632c0.225-0.126,0.438-0.165,0.632-0.116
				c0.216,0.047,0.38,0.175,0.525,0.378c0.127,0.176,0.157,0.429,0.097,0.73c-0.097,0.476-0.34,1.137-0.7,2.014
				c-0.35,0.875-0.777,1.75-1.282,2.635c-0.528,0.894-1.09,1.684-1.693,2.401c-0.623,0.72-1.245,1.119-1.897,1.236
				c-0.71,0.125-1.283,0.049-1.72-0.253c-0.42-0.31-0.72-0.768-0.914-1.331c-0.175-0.584-0.293-1.245-0.33-1.974
				c-0.03-0.74-0.01-1.449,0.057-2.179c0.058-0.709,0.145-1.352,0.253-1.914c0.097-0.565,0.202-0.974,0.302-1.246
				c-0.165,0.077-0.427,0.389-0.759,0.974c-0.34,0.572-0.69,1.214-1.041,1.904c-0.37,0.721-0.7,1.391-1.009,2.052
				c-0.303,0.672-0.508,1.118-0.605,1.343v-0.049c-0.077,0.204-0.232,0.447-0.485,0.69c-0.252,0.254-0.555,0.476-0.896,0.612
				c-0.35,0.167-0.662,0.233-0.952,0.233c-0.292,0-0.477-0.175-0.584-0.495c-0.115-0.35-0.175-0.807-0.192-1.401
				c-0.041-0.602-0.061-1.185-0.061-1.741c0-0.562,0-1.089,0.031-1.545c0.02-0.467,0-0.729-0.031-0.847
				c-0.175,0.078-0.36,0.38-0.562,0.925c-0.215,0.555-0.42,1.157-0.643,1.838c-0.225,0.692-0.41,1.392-0.583,2.101
				c-0.178,0.719-0.292,1.273-0.363,1.682c-0.067,0.448-0.3,0.768-0.689,0.982c-0.388,0.222-0.817,0.34-1.273,0.34
				c-0.458,0-0.867-0.118-1.235-0.35c-0.35-0.225-0.507-0.604-0.478-1.119c0.03-0.583,0.02-1.362-0.03-2.314
				c-0.058-0.982-0.098-2.003-0.156-3.063c-0.038-1.04-0.077-2.1-0.077-3.121C98.45,22.263,98.507,21.417,98.604,20.727z"/>
			<path fill="#B8886A" d="M151.399,0.032c0.613,0,1.4,0.049,2.383,0.106c0.972,0.068,1.995,0.205,3.082,0.369
				c1.08,0.206,2.207,0.458,3.317,0.797c1.128,0.303,2.14,0.741,3.012,1.228c0.897,0.514,1.615,1.135,2.18,1.857
				c0.565,0.699,0.835,1.546,0.835,2.498c0,1.284-0.485,2.307-1.478,3.034c-0.982,0.739-2.14,1.1-3.46,1.1
				c-0.08,0-0.235-0.019-0.468-0.08c-0.242-0.046-0.49-0.116-0.74-0.214c-0.253-0.067-0.488-0.173-0.662-0.299
				c-0.185-0.118-0.293-0.244-0.293-0.419c0-0.352,0.206-0.633,0.605-0.854c0.377-0.226,0.808-0.4,1.263-0.565
				c0.467-0.156,0.897-0.321,1.285-0.506c0.39-0.175,0.585-0.438,0.585-0.739c0-0.583-0.412-1.061-1.255-1.487
				c-0.837-0.409-1.84-0.729-3.015-0.992c-1.178-0.252-2.412-0.427-3.705-0.554c-1.294-0.127-2.393-0.194-3.267-0.194
				c-0.857,0-1.965,0.067-3.385,0.194c-1.38,0.126-2.88,0.302-4.512,0.554c-1.613,0.263-3.268,0.602-4.93,1.021
				c-1.673,0.428-3.18,0.941-4.543,1.535c-1.359,0.605-2.489,1.287-3.385,2.072c-0.874,0.768-1.36,1.674-1.417,2.655
				c-0.08,0.583,0.31,1.156,1.127,1.701c0.817,0.564,1.888,1.12,3.21,1.644c1.33,0.525,2.84,1.041,4.53,1.526
				c1.682,0.496,3.375,0.973,5.077,1.45c1.711,0.438,3.325,0.904,4.843,1.361c1.537,0.458,2.819,0.896,3.853,1.295
				c0.99,0.427,2.042,0.913,3.187,1.506c1.147,0.602,2.197,1.283,3.19,2.062c0.992,0.757,1.81,1.624,2.452,2.576
				c0.65,0.963,0.972,2.002,0.972,3.171c0,1.079-0.274,2.021-0.819,2.79c-0.542,0.759-1.273,1.381-2.175,1.868
				c-0.895,0.505-1.927,0.865-3.082,1.099c-1.16,0.194-2.355,0.311-3.59,0.311c-2.742,0-5.437-0.242-8.042-0.788
				c-2.598-0.525-5.125-1.273-7.574-2.266c-0.896-0.339-1.83-0.789-2.82-1.315c-0.993-0.523-1.888-1.146-2.705-1.826
				c-0.818-0.71-1.497-1.479-2.042-2.305c-0.545-0.826-0.817-1.75-0.817-2.781c0-0.517,0.107-1.021,0.332-1.537
				c0.223-0.505,0.546-0.973,0.973-1.37c0.427-0.418,0.942-0.75,1.555-0.992c0.622-0.255,1.323-0.399,2.14-0.399
				c0.175,0,0.38,0.021,0.622,0.049c0.232,0.031,0.427,0.108,0.603,0.195c0.175,0.117,0.262,0.243,0.262,0.379
				c0,0.135-0.174,0.301-0.515,0.515c-0.583,0.331-1.09,0.612-1.555,0.856c-0.458,0.252-0.848,0.486-1.178,0.72
				c-0.322,0.234-0.565,0.477-0.71,0.739c-0.155,0.263-0.235,0.554-0.235,0.895c0,0.515,0.158,1.011,0.487,1.478
				c0.33,0.488,0.72,0.924,1.205,1.332c0.467,0.399,0.955,0.78,1.45,1.08c0.498,0.301,0.923,0.544,1.303,0.7
				c2.45,1.273,5.087,2.217,7.925,2.898c2.822,0.651,5.669,0.992,8.529,0.992c0.508,0,1.178-0.01,2.012-0.049
				c0.837-0.04,1.665-0.166,2.49-0.36c0.817-0.203,1.517-0.505,2.09-0.924c0.585-0.399,0.867-0.99,0.867-1.789
				c0-1.031-0.49-1.945-1.46-2.791c-0.975-0.816-2.158-1.584-3.58-2.295c-1.397-0.689-2.915-1.292-4.509-1.798
				c-1.606-0.516-3.025-0.951-4.24-1.332c-3.54-1.022-6.575-1.935-9.085-2.704c-2.487-0.787-4.529-1.575-6.067-2.334
				c-1.547-0.767-2.685-1.556-3.365-2.371c-0.7-0.817-1.03-1.79-0.953-2.909c0.098-1.613,0.643-3.024,1.615-4.24
				c0.973-1.225,2.198-2.296,3.725-3.159c1.515-0.896,3.208-1.655,5.074-2.228c1.878-0.604,3.755-1.079,5.621-1.449
				c1.877-0.35,3.677-0.612,5.397-0.759C148.747,0.11,150.214,0.032,151.399,0.032z"/>
			<path fill="#B8886A" d="M170.256,18.888c0.467,0.098,0.884,0.321,1.244,0.661c0.368,0.34,0.658,0.73,0.895,1.138
				c0.273-0.321,0.62-0.495,1.029-0.516c0.408-0.038,0.795,0.021,1.175,0.166c0.37,0.146,0.672,0.408,0.905,0.737
				c0.255,0.312,0.332,0.701,0.275,1.14c-0.138,0.623-0.275,1.381-0.39,2.284c-0.118,0.915-0.195,1.82-0.235,2.655
				c-0.028,0.867,0,1.596,0.077,2.217c0.08,0.613,0.265,0.905,0.548,0.905c0.19,0,0.445-0.243,0.727-0.769
				c0.3-0.542,0.592-1.175,0.874-1.886c0.293-0.709,0.555-1.439,0.788-2.129c0.232-0.72,0.388-1.284,0.465-1.652
				c0.097-0.342,0.273-0.565,0.508-0.691c0.235-0.107,0.467-0.146,0.692-0.088c0.22,0.04,0.395,0.174,0.56,0.378
				c0.148,0.206,0.185,0.458,0.08,0.769c-0.07,0.206-0.183,0.574-0.333,1.156c-0.163,0.556-0.348,1.189-0.58,1.879
				c-0.246,0.65-0.537,1.361-0.857,2.1c-0.323,0.728-0.703,1.381-1.117,1.934c-0.431,0.564-0.898,1.011-1.443,1.314
				c-0.522,0.302-1.087,0.37-1.7,0.184c-1.001-0.253-1.703-0.855-2.148-1.78c-0.272,0.817-0.642,1.566-1.13,2.237
				c-0.467,0.662-1.088,1.127-1.837,1.449c-0.71,0.233-1.345,0.301-1.895,0.145c-0.982-0.271-1.77-0.886-2.345-1.817
				c-0.582-0.972-0.974-2.091-1.177-3.345c-0.192-1.254-0.212-2.559-0.057-3.919c0.175-1.371,0.523-2.607,1.049-3.677
				c0.536-1.089,1.243-1.963,2.141-2.596C167.921,18.85,168.991,18.665,170.256,18.888z M171.579,24.052
				c-0.06-0.575-0.195-1.149-0.38-1.691c-0.185-0.546-0.476-0.848-0.835-0.905c-0.555-0.115-1.042,0.098-1.47,0.574
				c-0.419,0.497-0.777,1.158-1.049,1.974c-0.263,0.807-0.468,1.701-0.585,2.674c-0.115,0.973-0.152,1.896-0.105,2.781
				c0.058,0.856,0.203,1.585,0.418,2.217c0.214,0.613,0.544,0.944,0.99,1.012c0.45,0.067,0.868-0.165,1.268-0.709
				c0.388-0.543,0.728-1.253,1.02-2.11c0.283-0.836,0.505-1.78,0.652-2.83C171.656,25.997,171.686,25.005,171.579,24.052z"/>
			<path fill="#B8886A" d="M179.501,11.468c0-0.807,0.227-1.38,0.652-1.7c0.448-0.321,0.935-0.457,1.47-0.438
				c0.525,0.038,0.991,0.213,1.371,0.564c0.399,0.349,0.544,0.778,0.437,1.341c-0.067,0.398-0.175,1.207-0.319,2.382
				c-0.175,1.217-0.302,2.559-0.447,4.123c-0.138,1.557-0.253,3.16-0.358,4.835c-0.087,1.663-0.157,3.218-0.177,4.63
				c-0.007,1.4,0.038,2.566,0.165,3.471c0.118,0.894,0.341,1.351,0.67,1.351c0.215,0,0.497-0.369,0.848-1.118
				c0.367-0.748,0.722-1.614,1.069-2.576c0.368-0.924,0.7-1.867,1.01-2.783c0.302-0.884,0.505-1.477,0.615-1.759
				c0.07-0.303,0.213-0.515,0.456-0.603c0.235-0.108,0.467-0.127,0.68-0.087c0.235,0.048,0.413,0.175,0.575,0.377
				c0.146,0.176,0.175,0.419,0.068,0.731c-0.205,0.682-0.475,1.624-0.817,2.869c-0.34,1.216-0.758,2.43-1.273,3.627
				c-0.515,1.168-1.118,2.226-1.837,3.12c-0.72,0.867-1.567,1.294-2.559,1.294c-0.923,0-1.603-0.477-2.068-1.449
				c-0.458-0.942-0.77-2.188-0.945-3.685c-0.165-1.508-0.225-3.18-0.186-5.009c0.058-1.837,0.155-3.635,0.293-5.387
				c0.135-1.77,0.272-3.373,0.408-4.803C179.435,13.336,179.501,12.228,179.501,11.468z"/>
			<path fill="#B8886A" d="M193.69,25.016c0,0-0.467,0.893-0.788,1.642c-0.155,0.35-0.313,0.691-0.477,1.031
				c-0.37,0.836-0.738,1.528-1.097,2.13c-0.361,0.623-0.643,0.934-0.846,0.934c-0.235,0-0.39-0.438-0.467-1.294
				c-0.059-0.885-0.067-1.983-0.04-3.286c0.04-1.313,0.098-2.695,0.216-4.192c0.09-1.497,0.212-2.829,0.35-4.064h1.535
				c0.535,0,0.973-0.097,1.275-0.301c0.3-0.204,0.457-0.438,0.457-0.691c0-0.242-0.147-0.485-0.427-0.708
				c-0.292-0.225-0.77-0.342-1.41-0.342h-1.228l0.255-1.332c0.097-0.554-0.05-0.982-0.436-1.321
				c-0.392-0.341-0.839-0.525-1.355-0.575c-0.505-0.028-0.982,0.137-1.43,0.447c-0.447,0.332-0.66,0.886-0.66,1.704
				c0,0.175-0.01,0.379-0.03,0.594c-0.02,0.231-0.03,0.446-0.03,0.688h-1.38c-0.602,0-1.052,0.098-1.322,0.311
				c-0.272,0.205-0.41,0.429-0.387,0.662c0.018,0.232,0.172,0.466,0.465,0.671c0.29,0.194,0.699,0.301,1.244,0.301h1.225
				c-0.059,0.981-0.155,2.072-0.252,3.239c-0.097,1.177-0.162,2.343-0.205,3.51c-0.03,1.158-0.03,2.275,0.03,3.365
				c0.058,1.088,0.175,2.042,0.388,2.897c0.194,0.828,0.507,1.508,0.915,1.994c0.41,0.515,0.933,0.796,1.575,0.796
				c1.003,0,1.847-0.407,2.567-1.137c0.72-0.738,1.322-1.644,1.83-2.654c0.232-0.457,0.445-0.924,0.64-1.4
				c0.797-1.557,1.692-3.142,1.692-3.142c0.545-1.011,2.88-5.873,5.272-4.921c0.273,0.116,0.253,0.504-0.07,1.186
				c-0.33,0.682-0.757,1.431-1.302,2.276c-0.535,0.827-1.12,1.644-1.712,2.441c-0.593,0.797-1.04,1.37-1.35,1.721
				c-0.313,0.33-0.565,0.68-0.771,1.021c-0.202,0.339-0.31,0.641-0.33,0.943c-0.03,0.293,0.067,0.544,0.273,0.758
				c0.222,0.224,0.585,0.359,1.137,0.437c0.837,0.166,1.497,0.477,1.935,0.905c-1.292,0.837-2.44,1.917-3.422,3.268
				c-0.983,1.342-1.723,2.684-2.188,4.025c-0.488,1.343-0.653,2.578-0.526,3.677c0.135,1.108,0.67,1.829,1.585,2.188
				c0.962,0.33,1.935,0.388,2.917,0.137c0.982-0.225,1.915-0.681,2.753-1.322c0.855-0.644,1.612-1.46,2.274-2.394
				c0.67-0.952,1.147-1.974,1.43-3.043c0.3-1.08,0.359-2.179,0.232-3.268c-0.135-1.119-0.572-2.13-1.323-3.044
				c0.098,0,0.185-0.01,0.303-0.02c0.108-0.029,0.223-0.038,0.35-0.038c0.28,0,0.485-0.078,0.622-0.224
				c0.135-0.154,0.203-0.329,0.203-0.544c0-0.215-0.088-0.38-0.263-0.526c-0.155-0.165-0.407-0.223-0.71-0.223
				c-0.612,0-1.225,0.068-1.837,0.244c-0.31-0.195-0.632-0.399-0.962-0.602c-0.34-0.215-0.711-0.39-1.08-0.575
				c0.487-0.341,1.012-0.798,1.615-1.39c0.582-0.564,1.147-1.177,1.682-1.857c0.525-0.672,0.993-1.333,1.4-2.032
				c0.4-0.691,0.662-1.372,0.77-1.976c0.095-0.641,0.095-1.264,0-1.857c-0.108-0.593-0.313-1.108-0.643-1.555
				c-0.321-0.457-0.692-0.837-1.245-1.05C200.372,17.283,197.035,18.139,193.69,25.016z M199.982,33.659
				c0.282,0.875,0.31,1.886,0.128,2.995c-0.185,1.098-0.487,2.14-0.945,3.093c-0.438,0.973-0.973,1.828-1.585,2.5
				c-0.603,0.671-1.205,1.012-1.79,1.012c-0.465,0-0.71-0.361-0.71-1.089c0-0.75,0.196-1.616,0.595-2.647
				c0.388-1.011,0.953-2.062,1.672-3.16C198.085,35.275,198.962,34.359,199.982,33.659z"/>
			<path fill="#B8886A" d="M206.994,20.727c0.125-0.75,0.448-1.323,0.962-1.752c0.505-0.426,1.02-0.718,1.565-0.884
				c0.525-0.136,0.982-0.165,1.372-0.049c0.387,0.119,0.535,0.391,0.438,0.809c-0.098,0.465-0.215,1.108-0.35,1.924
				c-0.148,0.817-0.273,1.665-0.371,2.5c-0.097,0.866-0.185,1.663-0.252,2.43c-0.067,0.788-0.097,1.333-0.097,1.664
				c0.134-0.468,0.31-0.973,0.505-1.46c0.215-0.535,0.407-1.031,0.642-1.525c0.213-0.487,0.448-0.945,0.69-1.352
				c0.235-0.409,0.457-0.748,0.652-0.963c0.252-0.35,0.622-0.612,1.107-0.806c0.488-0.187,0.953-0.283,1.383-0.283
				c0.427,0,0.767,0.137,1.05,0.361c0.273,0.231,0.31,0.592,0.155,1.021c-0.078,0.214-0.148,0.603-0.215,1.176
				c-0.058,0.584-0.135,1.215-0.202,1.877c0.202-0.457,0.485-0.992,0.817-1.574c0.339-0.575,0.69-1.12,1.02-1.645
				c0.34-0.545,0.66-1.021,0.952-1.467c0.292-0.438,0.505-0.769,0.68-0.964c0.255-0.351,0.603-0.631,1.08-0.854
				c0.478-0.226,0.945-0.311,1.38-0.311c0.439,0,0.827,0.085,1.119,0.311c0.311,0.223,0.446,0.591,0.418,1.098
				c-0.038,0.262-0.107,0.651-0.185,1.234c-0.08,0.573-0.192,1.246-0.33,1.993c-0.135,0.76-0.273,1.537-0.388,2.344
				c-0.117,0.817-0.214,1.566-0.302,2.227c-0.087,0.671-0.147,1.226-0.165,1.663c0,0.428,0.058,0.652,0.195,0.652
				c0.213,0,0.465-0.233,0.815-0.701c0.333-0.486,0.67-1.049,0.993-1.73c0.322-0.651,0.622-1.342,0.915-2.062
				c0.292-0.699,0.505-1.283,0.64-1.731c0.098-0.301,0.275-0.515,0.488-0.632c0.222-0.126,0.447-0.165,0.642-0.116
				c0.21,0.047,0.37,0.175,0.503,0.378c0.137,0.176,0.177,0.429,0.11,0.73c-0.11,0.476-0.34,1.137-0.69,2.014
				c-0.35,0.875-0.777,1.75-1.305,2.635c-0.504,0.894-1.069,1.684-1.68,2.401c-0.615,0.72-1.237,1.119-1.89,1.236
				c-0.727,0.125-1.292,0.049-1.72-0.253c-0.42-0.31-0.729-0.768-0.922-1.331c-0.185-0.584-0.293-1.245-0.323-1.974
				c-0.037-0.74-0.022-1.449,0.04-2.179c0.078-0.709,0.156-1.352,0.253-1.914c0.118-0.565,0.215-0.974,0.309-1.246
				c-0.175,0.077-0.417,0.389-0.757,0.974c-0.34,0.572-0.7,1.214-1.05,1.904c-0.35,0.721-0.68,1.391-0.992,2.052
				c-0.311,0.672-0.525,1.118-0.613,1.343v-0.049c-0.078,0.204-0.223,0.447-0.495,0.69c-0.245,0.254-0.545,0.476-0.895,0.612
				c-0.333,0.167-0.653,0.233-0.936,0.233c-0.292,0-0.484-0.175-0.592-0.495c-0.097-0.35-0.165-0.807-0.205-1.401
				c-0.037-0.602-0.057-1.185-0.057-1.741c0-0.562,0.02-1.089,0.02-1.545c0.037-0.467,0.02-0.729-0.02-0.847
				c-0.165,0.078-0.35,0.38-0.565,0.925c-0.186,0.555-0.408,1.157-0.633,1.838c-0.223,0.692-0.417,1.392-0.583,2.101
				c-0.165,0.719-0.293,1.273-0.36,1.682c-0.078,0.448-0.293,0.768-0.69,0.982c-0.38,0.222-0.808,0.34-1.275,0.34
				s-0.865-0.118-1.225-0.35c-0.351-0.225-0.525-0.604-0.485-1.119c0.028-0.583,0.028-1.362-0.03-2.314
				c-0.047-0.982-0.098-2.003-0.145-3.063c-0.06-1.04-0.087-2.1-0.087-3.121C206.829,22.263,206.886,21.417,206.994,20.727z"/>
			<path fill="#B8886A" d="M231.713,18.888c0.487,0.098,0.895,0.321,1.252,0.661c0.36,0.34,0.653,0.73,0.888,1.138
				c0.282-0.321,0.612-0.495,1.03-0.516c0.407-0.038,0.8,0.021,1.177,0.166c0.38,0.146,0.673,0.408,0.915,0.737
				c0.239,0.312,0.33,0.701,0.251,1.14c-0.126,0.623-0.263,1.381-0.381,2.284c-0.112,0.915-0.19,1.82-0.22,2.655
				c-0.042,0.867-0.01,1.596,0.068,2.217c0.085,0.613,0.27,0.905,0.533,0.905c0.217,0,0.456-0.243,0.749-0.769
				c0.292-0.542,0.585-1.175,0.857-1.886c0.303-0.709,0.562-1.439,0.795-2.129c0.255-0.72,0.39-1.284,0.47-1.652
				c0.102-0.342,0.267-0.565,0.504-0.691c0.24-0.107,0.468-0.146,0.688-0.088c0.225,0.04,0.41,0.174,0.575,0.378
				c0.148,0.206,0.178,0.458,0.06,0.769c-0.06,0.206-0.165,0.574-0.322,1.156c-0.145,0.556-0.358,1.189-0.59,1.879
				c-0.235,0.65-0.508,1.361-0.838,2.1c-0.322,0.728-0.702,1.381-1.127,1.934c-0.433,0.564-0.895,1.011-1.432,1.314
				c-0.516,0.302-1.098,0.37-1.71,0.184c-0.985-0.253-1.712-0.855-2.15-1.78c-0.272,0.817-0.64,1.566-1.107,2.237
				c-0.488,0.662-1.111,1.127-1.848,1.449c-0.72,0.233-1.345,0.301-1.887,0.145c-1.003-0.271-1.783-0.886-2.353-1.817
				c-0.585-0.972-0.973-2.091-1.19-3.345c-0.195-1.254-0.212-2.559-0.047-3.919c0.177-1.371,0.515-2.607,1.062-3.677
				c0.515-1.089,1.222-1.963,2.12-2.596C229.381,18.85,230.46,18.665,231.713,18.888z M233.042,24.052
				c-0.067-0.575-0.185-1.149-0.377-1.691c-0.193-0.546-0.466-0.848-0.855-0.905c-0.545-0.115-1.03,0.098-1.447,0.574
				c-0.43,0.497-0.78,1.158-1.05,1.974c-0.282,0.807-0.477,1.701-0.595,2.674c-0.12,0.973-0.135,1.896-0.095,2.781
				c0.057,0.856,0.192,1.585,0.408,2.217c0.229,0.613,0.552,0.944,1.009,1.012c0.43,0.067,0.848-0.165,1.235-0.709
				c0.397-0.543,0.729-1.253,1.042-2.11c0.268-0.836,0.495-1.78,0.648-2.83C233.115,25.997,233.15,25.005,233.042,24.052z"/>
			<path fill="#B8886A" d="M240.288,21.396c0.12-0.688,0.402-1.204,0.879-1.545c0.485-0.32,0.953-0.523,1.458-0.543
				c0.495-0.059,0.932,0.059,1.302,0.291c0.37,0.252,0.528,0.623,0.468,1.129c-0.078,0.476-0.175,1.029-0.292,1.614
				c-0.117,0.583-0.233,1.185-0.33,1.779c-0.107,0.603-0.175,1.157-0.235,1.701c-0.038,0.525-0.047,0.954-0.02,1.304
				c0.275-0.943,0.585-1.762,0.938-2.479c0.365-0.74,0.735-1.372,1.104-1.858c0.275-0.349,0.653-0.622,1.118-0.808
				c0.477-0.185,0.944-0.262,1.392-0.242c0.43,0.019,0.8,0.126,1.07,0.369c0.272,0.234,0.319,0.573,0.155,1.031
				c-0.118,0.3-0.205,0.777-0.283,1.42c-0.087,0.651-0.122,1.312-0.122,1.964c0,0.683,0.015,1.254,0.092,1.741
				c0.08,0.496,0.195,0.749,0.37,0.749c0.195,0,0.468-0.184,0.81-0.574c0.337-0.369,0.668-0.817,1.022-1.352
				c0.338-0.526,0.64-1.089,0.953-1.693c0.272-0.583,0.493-1.098,0.628-1.554c0.072-0.303,0.205-0.517,0.44-0.605
				c0.215-0.096,0.427-0.135,0.643-0.096c0.195,0.038,0.37,0.136,0.497,0.339c0.142,0.176,0.175,0.419,0.112,0.731
				c-0.112,0.466-0.337,1.128-0.727,1.935c-0.37,0.817-0.805,1.623-1.32,2.413c-0.507,0.787-1.073,1.477-1.692,2.071
				c-0.605,0.593-1.197,0.884-1.77,0.884c-0.992,0-1.715-0.252-2.129-0.787c-0.438-0.545-0.71-1.129-0.848-1.791
				c-0.135-0.67-0.195-1.312-0.155-1.945c0.037-0.632,0.02-1.031-0.06-1.196c-0.156,0.059-0.351,0.302-0.522,0.721
				c-0.178,0.399-0.37,0.895-0.536,1.409c-0.175,0.554-0.335,1.129-0.457,1.732c-0.138,0.583-0.235,1.098-0.263,1.497
				c-0.073,0.447-0.303,0.797-0.69,0.99c-0.392,0.234-0.817,0.342-1.275,0.342c-0.467,0-0.877-0.115-1.257-0.349
				c-0.37-0.262-0.542-0.623-0.512-1.139c0.045-0.584,0.045-1.283,0-2.09c-0.03-0.817-0.068-1.662-0.088-2.566
				c-0.04-0.925-0.057-1.79-0.057-2.647C240.098,22.847,240.155,22.078,240.288,21.396z"/>
			<g>
				<path fill="#B8886A" d="M108.971,35.644c0.953-0.954,1.246-1.556,0.906-1.887c-0.536-0.556-1.373-0.302-2.16,0.486
					c-9.967,9.909-20.916-8.207-38.013-13.76c-1.731-0.536-3.618-0.73-5.583-0.73c0,0-1.808-0.039-3.577,0.701
					c-0.37,0.137-0.761,0.33-1.177,0.594c-0.418,0.252-0.788,0.562-1.098,0.884c-0.323,0.331-0.508,0.69-0.585,1.099
					c-0.068,0.408,0.039,0.809,0.322,1.206c0.263,0.475,0.553,0.719,0.855,0.719c0.319,0,0.622-0.117,0.912-0.321
					c0.302-0.222,0.595-0.477,0.905-0.768c0.312-0.302,0.603-0.506,0.855-0.614c0,0,1.208-0.893,3.91-0.378
					c1.089,0.108,2.17,0.319,3.23,0.661c1.069,0.369,2.762,1.158,3.85,1.731C86.615,32.639,98.062,46.593,108.971,35.644z"/>
				<path fill="#B8886A" d="M61.312,21.435c-0.185,0.963-0.038,1.643,0.408,2.003c0.75,0.652,1.722,0.945,2.899,0.857
					c1.185-0.059,2.47-0.35,3.843-0.904c1.397-0.545,2.82-1.246,4.305-2.13c1.48-0.866,2.88-1.8,4.212-2.771
					c1.322-0.964,2.528-1.896,3.597-2.802c1.07-0.903,1.898-1.652,2.5-2.256c0.622-0.622,1.37-1.447,2.197-2.439
					C86.1,10.01,86.838,8.98,87.48,7.988c0.662-1.023,1.127-1.965,1.44-2.85c0.292-0.875,0.242-1.518-0.175-1.924
					C88.53,2.987,88.22,2.949,87.81,3.106c-0.407,0.136-0.825,0.311-1.252,0.524c-0.438,0.224-0.877,0.389-1.315,0.517
					c-0.428,0.127-0.758,0.067-1.01-0.166c-0.127-0.127-0.155-0.302-0.107-0.525c0.049-0.213,0.127-0.437,0.262-0.681
					c0.118-0.242,0.235-0.466,0.371-0.661c0.135-0.205,0.232-0.331,0.272-0.399c0.952-0.932,2.022-1.467,3.238-1.673
					c1.214-0.174,2.274,0.206,3.2,1.1c0.672,0.681,1.049,1.469,1.168,2.382c0.107,0.886,0.037,1.85-0.235,2.841
					c-0.26,0.981-0.68,1.975-1.243,3.003c-0.565,1.023-1.177,2.004-1.81,2.899c-0.633,0.906-1.275,1.712-1.915,2.45
					c-0.632,0.729-1.177,1.323-1.605,1.753c-0.837,0.851-1.925,1.827-3.247,2.935c-1.323,1.108-2.782,2.187-4.357,3.268
					c-1.585,1.059-3.24,2.051-4.998,2.955c-1.732,0.895-3.452,1.578-5.155,2.023c-1.702,0.447-3.327,0.584-4.882,0.39
					c-1.558-0.176-2.938-0.788-4.143-1.857c-0.837-0.739-1.293-1.643-1.383-2.733"/>
				<path fill="#B8886A" d="M74.118,18.529c0.08-3.542,0.138-6.35,0.165-8.431c0.03-2.033,0.039-3.607,0.03-4.678
					c-0.02-1.089-0.058-1.79-0.135-2.178c-0.07-0.38-0.157-0.651-0.245-0.856c-0.633-0.935-1.138-1.478-1.545-1.662
					c-0.4-0.185-0.72-0.128-0.953,0.175c-0.252,0.301-0.43,0.767-0.545,1.438c-0.117,0.643-0.195,1.331-0.242,2.033
					c-0.05,0.719-0.07,1.428-0.07,2.1c0,0.661,0,1.216,0,1.576c-0.115,3.646-0.135,7.146-0.068,10.552
					c0.068,3.353,0.226,8.448,0.428,11.862c0.145,2.062,0.283,3.579,0.438,4.609c0.118,1.021,0.323,1.517,0.595,1.517
					c0.3,0,0.572-0.35,0.845-1.089c0.273-0.729,0.485-1.604,0.68-2.606c0.175-1.02,0.313-2.034,0.411-3.083
					c0.105-1.06,0.165-1.926,0.165-2.604v-5.613"/>
			</g>
		</g>
		<path fill="#B8886A" d="M94.397,17.619c0.351-0.051,0.688-0.146,1.011-0.28c0.319-0.135,0.602-0.303,0.844-0.504
			c0.243-0.201,0.422-0.428,0.542-0.685c0.123-0.255,0.155-0.53,0.103-0.825c-0.08-0.565-0.43-0.973-1.047-1.228
			c-0.62-0.256-1.318-0.315-2.095-0.182c-0.78,0.135-1.405,0.409-1.872,0.826c-0.47,0.416-0.653,0.92-0.548,1.511
			c0.082,0.564,0.445,0.952,1.09,1.167C93.07,17.634,93.728,17.701,94.397,17.619"/>
	</g>
	<g>
		<polygon fill="#46A19E" points="5.557,59.602 5.557,61.092 0,61.092 0,53.071 1.59,53.071 1.59,59.602 		"/>
		<rect x="9.706" y="53.07" fill="#46A19E" width="1.593" height="8.022"/>
		<path fill="#46A19E" d="M21.756,55.453c-0.425-0.596-1.228-0.974-2.017-0.974c-1.503,0-2.498,1.076-2.498,2.601
			c0,1.57,1.065,2.579,2.498,2.579c0.917,0,1.765-0.481,2.167-1.181l1.602,0.425c-0.665,1.421-2.085,2.349-3.77,2.349
			c-2.302,0-4.16-1.753-4.16-4.172c0-2.418,1.857-4.17,4.16-4.17c1.582,0,2.935,0.836,3.645,2.12L21.756,55.453z"/>
		<polygon fill="#46A19E" points="33.353,59.602 33.353,61.092 27.611,61.092 27.611,53.071 33.283,53.071 33.283,54.559 
			29.206,54.559 29.206,56.267 32.423,56.267 32.423,57.666 29.206,57.666 29.206,59.602 		"/>
		<path fill="#46A19E" d="M45.042,53.07v8.022H43.54l-2.28-3.095c-0.72-0.986-1.602-2.245-1.615-2.245h-0.012
			c-0.01,0,0.012,1.157,0.012,2.75v2.589h-1.592V53.07h1.5L41.88,56.2c0.55,0.72,1.56,2.152,1.57,2.152h0.012
			c0.01,0-0.012-1.306-0.012-2.659V53.07H45.042z"/>
		<path fill="#46A19E" d="M53.97,55.512c-0.186-0.803-0.882-1.216-1.592-1.216c-0.735,0-1.205,0.356-1.205,0.837
			c0,0.643,0.905,0.872,1.915,1.215c1.17,0.402,2.509,1.021,2.509,2.453c0,1.433-1.237,2.453-3.072,2.453
			c-1.685,0-2.84-0.952-3.277-2.408l1.537-0.412c0.173,0.722,0.812,1.398,1.808,1.398c0.859,0,1.307-0.424,1.307-0.961
			c0-0.814-1.087-1.01-2.222-1.41c-0.95-0.344-2.143-0.836-2.143-2.236c0-1.248,1.237-2.314,2.933-2.314
			c1.502,0,2.692,0.917,3.037,2.177L53.97,55.512z"/>
		<polygon fill="#46A19E" points="65.592,59.602 65.592,61.092 59.849,61.092 59.849,53.071 65.521,53.071 65.521,54.559 
			61.441,54.559 61.441,56.267 64.662,56.267 64.662,57.666 61.441,57.666 61.441,59.602 		"/>
		<path fill="#46A19E" d="M73.751,53.071c2.292,0,4.15,1.638,4.15,4.045c0,2.394-1.845,3.976-4.126,3.976h-3.484v-8.021H73.751z
			 M73.775,59.602c1.328,0,2.473-0.929,2.473-2.486c0-1.56-1.145-2.557-2.497-2.557h-1.867v5.043H73.775z"/>
		<path fill="#46A19E" d="M90.957,53.071c1.925,0,3.095,1.008,3.095,2.682c0,1.684-1.17,2.693-3.095,2.693h-1.269v2.646h-1.595
			v-8.021H90.957z M90.922,56.954c0.94,0,1.48-0.457,1.48-1.202c0-0.758-0.562-1.193-1.48-1.193h-1.234v2.395H90.922z"/>
		<path fill="#46A19E" d="M102.637,61.092l-1.592-2.739h-0.092h-1.215v2.739h-1.593V53.07h2.808c1.972,0,3.152,1.066,3.152,2.683
			c0,1.1-0.54,1.902-1.513,2.303l1.833,3.037H102.637z M99.737,56.932h1.419c0.883,0,1.298-0.573,1.298-1.18
			c0-0.632-0.425-1.193-1.298-1.193h-1.419V56.932z"/>
		<path fill="#46A19E" d="M112.069,52.91c2.305,0,4.171,1.753,4.171,4.17c0,2.419-1.867,4.172-4.171,4.172
			c-2.305,0-4.16-1.753-4.16-4.172C107.909,54.663,109.764,52.91,112.069,52.91 M112.069,59.683c1.479,0,2.509-1.066,2.509-2.602
			c0-1.547-1.03-2.601-2.509-2.601c-1.468,0-2.498,1.054-2.498,2.601C109.571,58.617,110.601,59.683,112.069,59.683"/>
		<polygon fill="#46A19E" points="122.096,54.559 122.096,56.518 125.201,56.518 125.201,57.952 122.096,57.952 122.096,61.092 
			120.504,61.092 120.504,53.071 126.061,53.071 126.061,54.559 		"/>
		<polygon fill="#46A19E" points="136.123,59.602 136.123,61.092 130.383,61.092 130.383,53.071 136.056,53.071 136.056,54.559 
			131.975,54.559 131.975,56.267 135.195,56.267 135.195,57.666 131.975,57.666 131.975,59.602 		"/>
		<path fill="#46A19E" d="M144.547,55.512c-0.183-0.803-0.882-1.216-1.592-1.216c-0.735,0-1.203,0.356-1.203,0.837
			c0,0.643,0.905,0.872,1.913,1.215c1.17,0.402,2.512,1.021,2.512,2.453c0,1.433-1.24,2.453-3.072,2.453
			c-1.685,0-2.842-0.952-3.277-2.408l1.535-0.412c0.173,0.722,0.812,1.398,1.81,1.398c0.86,0,1.308-0.424,1.308-0.961
			c0-0.814-1.09-1.01-2.225-1.41c-0.95-0.344-2.143-0.836-2.143-2.236c0-1.248,1.238-2.314,2.933-2.314
			c1.502,0,2.695,0.917,3.04,2.177L144.547,55.512z"/>
		<path fill="#46A19E" d="M154.487,55.512c-0.185-0.803-0.885-1.216-1.595-1.216c-0.732,0-1.202,0.356-1.202,0.837
			c0,0.643,0.905,0.872,1.913,1.215c1.169,0.402,2.51,1.021,2.51,2.453c0,1.433-1.235,2.453-3.07,2.453
			c-1.685,0-2.842-0.952-3.277-2.408l1.535-0.412c0.172,0.722,0.812,1.398,1.81,1.398c0.86,0,1.307-0.424,1.307-0.961
			c0-0.814-1.087-1.01-2.223-1.41c-0.952-0.344-2.145-0.836-2.145-2.236c0-1.248,1.237-2.314,2.935-2.314
			c1.502,0,2.692,0.917,3.037,2.177L154.487,55.512z"/>
		<rect x="160.367" y="53.07" fill="#46A19E" width="1.595" height="8.022"/>
		<path fill="#46A19E" d="M170.398,52.91c2.305,0,4.17,1.753,4.17,4.17c0,2.419-1.865,4.172-4.17,4.172
			c-2.305,0-4.16-1.753-4.16-4.172C166.239,54.663,168.094,52.91,170.398,52.91 M170.398,59.683c1.48,0,2.51-1.066,2.51-2.602
			c0-1.547-1.03-2.601-2.51-2.601c-1.467,0-2.498,1.054-2.498,2.601C167.901,58.617,168.931,59.683,170.398,59.683"/>
		<path fill="#46A19E" d="M185.822,53.07v8.022h-1.502l-2.28-3.095c-0.722-0.986-1.605-2.245-1.615-2.245h-0.012
			c-0.01,0,0.012,1.157,0.012,2.75v2.589h-1.593V53.07h1.5l2.328,3.131c0.547,0.72,1.558,2.152,1.567,2.152h0.015
			c0.01,0-0.015-1.306-0.015-2.659V53.07H185.822z"/>
		<path fill="#46A19E" d="M195.402,59.556h-3.472l-0.596,1.536h-1.72l3.3-8.022h1.502l3.3,8.022h-1.718L195.402,59.556z
			 M194.852,58.147l-0.792-2.028c-0.171-0.449-0.376-1.112-0.388-1.112h-0.01c-0.015,0-0.22,0.663-0.393,1.112l-0.79,2.028H194.852z
			"/>
		<polygon fill="#46A19E" points="207.069,59.602 207.069,61.092 201.509,61.092 201.509,53.071 203.104,53.071 203.104,59.602 		
			"/>
		<path fill="#46A19E" d="M222.721,55.453c-0.425-0.596-1.228-0.974-2.018-0.974c-1.502,0-2.497,1.076-2.497,2.601
			c0,1.57,1.065,2.579,2.497,2.579c0.918,0,1.765-0.481,2.165-1.181l1.603,0.425c-0.663,1.421-2.085,2.349-3.768,2.349
			c-2.305,0-4.159-1.753-4.159-4.172c0-2.418,1.855-4.17,4.159-4.17c1.58,0,2.932,0.836,3.643,2.12L222.721,55.453z"/>
		<path fill="#46A19E" d="M232.311,52.91c2.302,0,4.169,1.753,4.169,4.17c0,2.419-1.868,4.172-4.169,4.172
			c-2.303,0-4.16-1.753-4.16-4.172C228.15,54.663,230.008,52.91,232.311,52.91 M232.311,59.683c1.479,0,2.509-1.066,2.509-2.602
			c0-1.547-1.03-2.601-2.509-2.601c-1.468,0-2.498,1.054-2.498,2.601C229.812,58.617,230.843,59.683,232.311,59.683"/>
		<path fill="#46A19E" d="M247.585,53.07v4.538c0,2.362-1.353,3.645-3.46,3.645c-2.121,0-3.462-1.283-3.462-3.645V53.07h1.595v4.517
			c0,1.489,0.64,2.177,1.868,2.177c1.214,0,1.857-0.688,1.857-2.177V53.07H247.585z"/>
		<path fill="#46A19E" d="M259.114,53.07v8.022h-1.5l-2.28-3.095c-0.725-0.986-1.607-2.245-1.617-2.245h-0.013
			c-0.01,0,0.013,1.157,0.013,2.75v2.589h-1.595V53.07h1.502l2.327,3.131c0.55,0.72,1.558,2.152,1.57,2.152h0.013
			c0.01,0-0.013-1.306-0.013-2.659V53.07H259.114z"/>
		<path fill="#46A19E" d="M268.041,55.512c-0.183-0.803-0.882-1.216-1.592-1.216c-0.733,0-1.203,0.356-1.203,0.837
			c0,0.643,0.905,0.872,1.913,1.215c1.17,0.402,2.512,1.021,2.512,2.453c0,1.433-1.238,2.453-3.072,2.453
			c-1.688,0-2.843-0.952-3.277-2.408l1.535-0.412c0.17,0.722,0.814,1.398,1.81,1.398c0.859,0,1.307-0.424,1.307-0.961
			c0-0.814-1.09-1.01-2.222-1.41c-0.953-0.344-2.143-0.836-2.143-2.236c0-1.248,1.238-2.314,2.933-2.314
			c1.5,0,2.692,0.917,3.037,2.177L268.041,55.512z"/>
		<polygon fill="#46A19E" points="279.663,59.602 279.663,61.092 273.92,61.092 273.92,53.071 279.596,53.071 279.596,54.559 
			275.515,54.559 275.515,56.267 278.735,56.267 278.735,57.666 275.515,57.666 275.515,59.602 		"/>
		<polygon fill="#46A19E" points="289.92,59.602 289.92,61.092 284.36,61.092 284.36,53.071 285.955,53.071 285.955,59.602 		"/>
		<path fill="#46A19E" d="M297.439,52.91c2.303,0,4.172,1.753,4.172,4.17c0,2.419-1.87,4.172-4.172,4.172
			c-2.302,0-4.157-1.753-4.157-4.172C293.282,54.663,295.137,52.91,297.439,52.91 M297.439,59.683c1.48,0,2.51-1.066,2.51-2.602
			c0-1.547-1.03-2.601-2.51-2.601c-1.465,0-2.497,1.054-2.497,2.601C294.942,58.617,295.974,59.683,297.439,59.683"/>
		<path fill="#46A19E" d="M310.366,61.092l-1.595-2.739h-0.09h-1.215v2.739h-1.595V53.07h2.81c1.97,0,3.149,1.066,3.149,2.683
			c0,1.1-0.537,1.902-1.509,2.303l1.832,3.037H310.366z M307.466,56.932h1.42c0.882,0,1.295-0.573,1.295-1.18
			c0-0.632-0.422-1.193-1.295-1.193h-1.42V56.932z"/>
	</g>
</g>
</svg>
